<?xml version="1.0" encoding="UTF-8" standalone="no"?>
<!-- Created with Inkscape (http://www.inkscape.org/) -->

<svg
   width="270.92844mm"
   height="270.89001mm"
   viewBox="0 0 270.92844 270.89001"
   version="1.1"
   id="svg5"
   inkscape:version="1.1.1 (3bf5ae0d25, 2021-09-20)"
   sodipodi:docname="logo.svg"
   xmlns:inkscape="http://www.inkscape.org/namespaces/inkscape"
   xmlns:sodipodi="http://sodipodi.sourceforge.net/DTD/sodipodi-0.dtd"
   xmlns="http://www.w3.org/2000/svg"
   xmlns:svg="http://www.w3.org/2000/svg">
  <sodipodi:namedview
     id="namedview7"
     pagecolor="#505050"
     bordercolor="#eeeeee"
     borderopacity="1"
     inkscape:pageshadow="0"
     inkscape:pageopacity="0"
     inkscape:pagecheckerboard="0"
     inkscape:document-units="mm"
     showgrid="false"
     inkscape:zoom="0.36703143"
     inkscape:cx="576.24494"
     inkscape:cy="652.53268"
     inkscape:window-width="1920"
     inkscape:window-height="1009"
     inkscape:window-x="-8"
     inkscape:window-y="-8"
     inkscape:window-maximized="1"
     inkscape:current-layer="layer1" />
  <defs
     id="defs2" />
  <g
     inkscape:label="Layer 1"
     inkscape:groupmode="layer"
     id="layer1"
     transform="translate(168.35005,9.9175767)">
    <path
       style="fill:#4a9b00;fill-opacity:1;stroke-width:0.264583"
       d="m -42.412367,260.71687 c -20.976,-1.61812 -40.02741,-7.43377 -57.943753,-17.68802 -32.86214,-18.80833 -56.55485,-51.01176 -64.8331,-88.12195 -3.80166,-17.0423 -4.18886,-36.13566 -1.08115,-53.31354 10.07687,-55.700089 53.40463,-99.0931527 109.251853,-109.4165187 15.10715,-2.7925573 33.15515,-2.7925573 48.262289,0 44.4582,8.21810404 81.42234,37.3388577 99.8525,78.6648927 13.280968,29.779936 15.130828,64.730756 5.07958,95.971416 -11.22543,34.89018 -35.8716,63.61159 -68.6286,79.97632 -13.28729,6.63806 -28.8795,11.42224 -42.90792,13.16548 -7.686089,0.95509 -20.037679,1.30299 -27.051699,0.76192 z m -21.62888,-86.09851 c 2.71225,-3.92918 5.35217,-8.67894 5.13634,-9.24137 -0.0684,-0.17834 -0.70163,-0.53337 -1.40709,-0.78895 -2.27669,-0.82481 -9.35245,-4.44797 -9.35245,-4.78895 0,-0.18179 0.54802,-0.77959 1.21782,-1.32845 l 1.21783,-0.99792 2.02332,0.86575 c 5.38181,2.30282 13.47395,4.70575 19.11435,5.67593 8.0617,1.38666 18.30476,1.38463 26.43292,-0.005 5.645739,-0.96538 13.252399,-3.21378 18.344359,-5.42229 1.31142001,-0.56879 2.51269,-1.03061 2.6695,-1.02627 0.51717,0.0143 2.62267,2.01592 2.43685,2.3166 -0.2822,0.4566 -4.75942999,2.79098 -7.97258,4.15682 -1.60073,0.68043 -2.95104,1.27744 -3.00068,1.32669 -0.20756,0.20589 3.953,7.24718 5.96875,10.10146 L -0.05550799,177.1 3.835332,175.77533 c 9.55499,-3.25309 18.81344,-7.91439 27.12715,-13.65755 1.57487,-1.08793 2.97291,-2.23265 3.10676,-2.54384 0.39915,-0.92797 0.67737,-10.48931 0.47455,-16.30849 -0.70707,-20.28635 -6.51426,-38.56447 -18.16891,-57.186559 l -2.25833,-3.608419 -4.6504,-1.854822 c -5.72366,-2.282904 -8.38826,-3.185088 -12.98477,-4.396425 -2.84047,-0.748556 -9.70875,-2.274628 -10.23726,-2.274628 -0.0607,0 -0.89067,1.607344 -1.84442,3.571875 -1.358409,2.798035 -1.847499,3.571875 -2.257519,3.571875 -0.28789,0 -2.03113,-0.200755 -3.87388,-0.446125 -2.49822,-0.332647 -5.33585,-0.446124 -11.15567,-0.446124 -5.81983,0 -8.65745,0.113477 -11.15567,0.446124 -1.84276,0.24537 -3.586,0.446125 -3.87388,0.446125 -0.41002,0 -0.89911,-0.77384 -2.25752,-3.571875 -0.95376,-1.964531 -1.81766,-3.571875 -1.91979,-3.571875 -0.68521,0 -7.57793,1.577263 -11.14587,2.550515 -4.8222,1.315384 -7.80753,2.347714 -13.10103,4.530351 l -3.63396,1.498373 -1.69612,2.655691 c -13.79153,21.594023 -20.091963,44.824863 -18.695523,68.933823 0.23805,4.11 0.410313,5.53036 0.711053,5.86321 0.57059,0.6315 6.09924,4.35777 9.35373,6.30435 3.50458,2.09616 10.22618,5.46731 14.0955,7.06945 3.82696,1.58459 10.33083,3.77914 10.54128,3.55685 0.0896,-0.0946 0.82031,-1.12449 1.62392,-2.28865 z m 5.75388,-30.71896 c -4.24103,-1.13469 -7.63518,-4.91176 -8.8913,-9.8944 -0.57076,-2.26402 -0.38359,-6.1129 0.40531,-8.33456 2.5529,-7.18938 10.03676,-10.63942 16.34383,-7.53446 3.1914,1.57113 5.86537,4.94533 6.81828,8.60379 0.51904,1.99273 0.5194,5.65683 7.9e-4,7.64808 -1.82509,7.007 -8.31586,11.21344 -14.67686,9.51155 z m 45.027949,0.0109 c -6.940279,-1.86769 -11.071399,-10.62085 -8.531819,-18.0775 3.04853,-8.95103 13.306839,-11.74402 19.595529,-5.33522 2.70546001,2.75714 3.96875,6.01838 3.96875,10.2455 0,8.83027 -7.32063,15.24256 -15.03246,13.16723 z"
       id="path2298" />
    <path
       style="fill:#ffffff;fill-opacity:1;stroke-width:0.772317;stroke-linecap:round;stroke-linejoin:round;paint-order:stroke markers fill"
       d="m -254.66811,666.74647 c -7.95268,-2.30553 -28.76855,-9.92229 -37.44897,-13.703 -12.50332,-5.44575 -38.84413,-18.88471 -49.13435,-25.06811 -11.24666,-6.75812 -31.13285,-20.05035 -33.99037,-22.71967 -2.13656,-1.99585 -2.35282,-3.11593 -3.49715,-18.1125 -0.90755,-11.89361 -0.89388,-46.75347 0.023,-58.5781 5.85057,-75.4552 29.13311,-142.56746 73.11499,-210.75507 l 3.69706,-5.73176 13.19128,-5.37374 c 17.60265,-7.17078 27.84543,-10.84985 40.29318,-14.47274 19.95288,-5.80724 50.8077,-13.02184 51.65953,-12.07924 0.23727,0.26256 3.10787,5.74427 6.37911,12.18158 3.27122,6.4373 6.63275,12.34778 7.47006,13.13438 l 1.52237,1.43019 11.85218,-1.52764 c 10.86749,-1.40072 14.6251,-1.52764 45.22807,-1.52764 30.476814,0 34.391036,0.13098 45.062827,1.50791 6.427815,0.82935 12.117559,1.34267 12.64387,1.1407 1.204604,-0.46225 4.596983,-6.31292 10.307857,-17.77745 l 4.455245,-8.94387 3.271259,0.60959 c 1.799186,0.33528 9.554775,2.01501 17.234635,3.73274 26.1965852,5.85931 42.739222,11.15701 73.756273,23.62008 l 10.750769,4.3198 7.500877,12.07295 c 11.187598,18.00687 16.24696,27.02853 25.074433,44.71177 33.448645,67.00448 47.026255,130.82036 44.346945,208.43431 -0.92159,26.69643 -0.63984,25.22802 -5.63874,29.38814 -15.37031,12.79131 -54.832335,35.19777 -82.227374,46.68856 -13.986997,5.86681 -39.7345742,15.19085 -41.94832192,15.19085 -2.02978528,0 -27.91726908,-42.06852 -26.66072108,-43.32506 0.151445,-0.15145 5.075478,-2.41474 10.942299,-5.02955 15.10772505,-6.73342 29.056994,-14.01646 30.110405,-15.72091 0.486253,-0.78678 -5.5474542,-7.26855 -7.8971985,-8.48365 -1.6443823,-0.85035 -2.6836394,-0.55852 -13.644254,3.83142 -29.4552435,11.7974 -61.7091715,20.0247 -87.8114655,22.39888 -21.270629,1.9347 -48.041799,1.52199 -68.454629,-1.05534 -23.42573,-2.95773 -57.13244,-12.22891 -81.93467,-22.5365 l -9.05263,-3.7622 -2.18619,1.68155 c -3.10157,2.38562 -7.29475,6.56829 -7.29475,7.27647 0,1.33205 22.93025,13.40854 34.90723,18.3843 2.90268,1.2059 5.46083,2.48901 5.68478,2.85137 0.55289,0.89459 -4.04277,10.32497 -9.25767,18.99689 -4.70562,7.82503 -14.72104,22.74878 -15.92731,23.73294 -0.47686,0.38905 -2.90198,0.002 -6.47373,-1.03363 z m 57.47791,-123.20894 c 12.36671,-3.70886 22.35576,-12.43388 28.73272,-25.09682 6.06643,-12.04632 7.17967,-30.43957 2.63353,-43.51198 -5.08328,-14.61696 -17.96343,-27.41525 -31.63382,-31.43275 -20.26826,-5.95652 -43.05344,5.1876 -52.86037,25.85374 -3.76602,7.93613 -4.70306,12.77674 -4.73827,24.4772 -0.0359,11.93493 0.99985,16.28278 6.32827,26.56449 2.46867,4.76355 4.46774,7.42378 8.96665,11.93219 8.03601,8.05298 15.66282,11.88878 25.54278,12.84638 6.66827,0.64631 10.72797,0.25713 17.02851,-1.63245 z m 168.863293,0.68069 c 15.511819,-4.04031 27.63831474,-16.59939 33.2001682,-34.38449 1.3974076,-4.46848 1.5971725,-6.47405 1.5943662,-16.00681 -0.00341,-12.54104 -0.808112,-16.54139 -5.0678358,-25.2022 -4.9184617,-10.00012 -12.8257686,-18.00461 -22.1745796,-22.4471 -6.451988,-3.06594 -11.110002,-4.088 -18.390796,-4.03532 -32.608706,0.23596 -54.52749,35.38546 -43.215216,69.30099 2.864012,8.58665 6.705829,14.78491 13.186609,21.27486 11.258518,11.27445 25.907353,15.39664 40.867284,11.50007 z"
       id="path3713"
       transform="scale(0.26458333)" />
  </g>
</svg>
